Simulation
nRows=16
nColumns=15
endheader
time  TH_x TH_y TH_z SC_y  SC_z  SC_x  AC_y  AC_z  AC_x  GH_y  GH_z  GH_yy  EL_x  PS_y
8.6175  0.000000  0.000000  0.000000  -37.51221642506512  -0.7489290749750215  -8.123668029611682  46.91866207438873  11.298827282083652  5.268866153734373  12.209344709922282  4.024391943555314  0.2818857628364281  20.580354980132075  120.000000
8.67495  0.000000  0.000000  0.000000  -37.136379080381246  -0.7221619951905701  -8.985850709899806  46.389110753116164  11.481701054173344  5.501110996655769  17.591403176097597  4.888259451860379  -5.17236374147959  20.512045681305437  120.000000
8.7324  0.000000  0.000000  0.000000  -36.7110382197246  -0.7472948592066754  -9.906938376323545  46.01274913135271  11.645055067327107  5.850739833637343  24.030819031762483  6.06762318216448  -11.577851380444496  20.621141205254904  120.000000
8.78985  0.000000  0.000000  0.000000  -36.284930425017585  -0.8257003541393018  -10.844909921497653  45.81335444982388  11.792040775662112  6.323927778921634  30.58087431603466  7.654646243091352  -18.025701473740718  20.888536865450998  120.000000
8.8473  0.000000  0.000000  0.000000  -35.91406586612046  -0.9357109611594385  -11.760905870891996  45.79056131037659  11.934678922249926  6.912462335638677  36.51428128619237  9.720296813924538  -23.860202438209182  21.249728580746503  120.000000
8.90475  0.000000  0.000000  0.000000  -35.64468921494028  -1.0461032022120416  -12.626334141837175  45.931189533067595  12.083715921193532  7.594342502531254  41.50235767346753  12.289964196315703  -28.830767750378282  21.626225430499147  120.000000
8.9622  0.000000  0.000000  0.000000  -35.49821296885083  -1.1247970359487416  -13.420567074846945  46.223568213253486  12.242869836288815  8.338528814985807  45.54180000159109  15.343009790404965  -32.99314449346013  21.954045975535255  120.000000
9.01965  0.000000  0.000000  0.000000  -35.477565740055994  -1.1451235308955894  -14.121843928883901  46.6606594686957  12.408283620242152  9.116037227481288  48.78473185458077  18.828377251092068  -36.52412468756946  22.199366393672886  120.000000
9.0771  0.000000  0.000000  0.000000  -35.57447206814665  -1.0884357036022954  -14.698860424480237  47.23034716274692  12.569312965566558  9.911885233081662  51.41521202618859  22.673641946971653  -39.59336677558131  22.35520919041997  120.000000
9.13455  0.000000  0.000000  0.000000  -35.77961760741132  -0.94377034338465  -15.10804078960595  47.912421428475916  12.717925489433492  10.719781385615812  53.5923836247006  26.794878943889422  -42.317780401934115  22.426903629880726  120.000000
9.192  0.000000  0.000000  0.000000  -36.0830787495156  -0.6962178204873376  -15.298149323549575  48.688188717656246  12.859172031120766  11.525437179358462  55.436134719507244  31.10654032485098  -44.76533732082246  22.418171470671858  120.000000
9.24945  0.000000  0.000000  0.000000  -36.46434622725186  -0.32267546088262783  -15.213380170279708  49.54326826635624  13.010514485556607  12.304822442624053  57.035450412817355  35.52749605660432  -46.97523821803704  22.32376792098067  120.000000
9.3069  0.000000  0.000000  0.000000  -36.89476543653225  0.1967599828870934  -14.79744552601622  50.4631678740459  13.19104677871086  13.0330555162715  58.45430564624184  39.98793553538422  -48.97248858219007  22.130878604397903  120.000000
9.36435  0.000000  0.000000  0.000000  -37.34811413418124  0.8712774325754151  -14.004879379192344  51.43035869355821  13.409686630155333  13.688644123975521  59.733808301244494  44.428804780265786  -50.77286208949722  21.828032282523395  120.000000
9.421800000000001  0.000000  0.000000  0.000000  -37.81203054752443  1.6941898929866706  -12.814769213738051  52.42233829680379  13.657840570145957  14.25449614062859  60.89084318459383  48.79865495738779  -52.38490307772652  21.41618765392886  120.000000
9.47925  0.000000  0.000000  0.000000  -38.295263470435565  2.6382657601054693  -11.238935741644573  53.41209542250354  13.909130862237406  14.717946011035043  61.91850375981011  53.052351479190875  -53.81153628120571  20.916819984216275  120.000000
